HIERARCHY
ROOT Hips
{
 OFFSET 0.000000 0.000000 0.000000
 CHANNELS 6 Xposition Yposition Zposition Yrotation Xrotation Zrotation
 JOINT Chest
 {
  OFFSET 0.000000 10.932484 0.001155
  CHANNELS 3 Yrotation Xrotation Zrotation
  JOINT Chest2
  {
   OFFSET 0.000000 12.093805 -0.002099
   CHANNELS 3 Yrotation Xrotation Zrotation
   JOINT Chest3
   {
    OFFSET 0.000000 10.927800 0.000000
    CHANNELS 3 Yrotation Xrotation Zrotation
    JOINT Chest4
    {
     OFFSET 0.000000 10.927800 0.000000
     CHANNELS 3 Yrotation Xrotation Zrotation
     JOINT Neck
     {
      OFFSET 0.000000 15.355144 0.000000
      CHANNELS 3 Yrotation Xrotation Zrotation
      JOINT Head
      {
       OFFSET 0.000000 10.170446 -0.004991
       CHANNELS 3 Yrotation Xrotation Zrotation
       End Site
       {
        OFFSET 0.000000 19.463738 -0.002607
       }
      }
     }
     JOINT RightCollar
     {
      OFFSET -3.333126 8.566406 0.000000
      CHANNELS 3 Yrotation Xrotation Zrotation
      JOINT RightShoulder
      {
       OFFSET -15.529370 0.000000 0.000000
       CHANNELS 3 Yrotation Xrotation Zrotation
       JOINT RightElbow
       {
        OFFSET 0.000000 -33.145213 0.000000
        CHANNELS 3 Yrotation Xrotation Zrotation
        JOINT RightWrist
        {
         OFFSET 0.000000 -27.120720 -0.000000
         CHANNELS 3 Yrotation Xrotation Zrotation
         End Site
         {
          OFFSET 0.000000 -20.306483 0.000000
         }
        }
       }
      }
     }
     JOINT LeftCollar
     {
      OFFSET 3.333126 8.566406 0.000000
      CHANNELS 3 Yrotation Xrotation Zrotation
      JOINT LeftShoulder
      {
       OFFSET 15.529370 0.000000 0.000000
       CHANNELS 3 Yrotation Xrotation Zrotation
       JOINT LeftElbow
       {
        OFFSET 0.000000 -33.145213 0.000000
        CHANNELS 3 Yrotation Xrotation Zrotation
        JOINT LeftWrist
        {
         OFFSET 0.000000 -27.120720 -0.000000
         CHANNELS 3 Yrotation Xrotation Zrotation
         End Site
         {
          OFFSET 0.000000 -20.306483 0.000000
         }
        }
       }
      }
     }
    }
   }
  }
 }
 JOINT RightHip
 {
  OFFSET -8.869179 -0.005661 -0.000578
  CHANNELS 3 Yrotation Xrotation Zrotation
  JOINT RightKnee
  {
   OFFSET 0.000000 -45.835245 0.000547
   CHANNELS 3 Yrotation Xrotation Zrotation
   JOINT RightAnkle
   {
    OFFSET 0.000000 -44.890236 0.000924
    CHANNELS 3 Yrotation Xrotation Zrotation
    JOINT RightToe
    {
     OFFSET 0.000000 -8.082775 18.351045
     CHANNELS 3 Yrotation Xrotation Zrotation
     End Site
     {
      OFFSET 0.000000 -1.681997 7.345339
     }
    }
   }
  }
 }
 JOINT LeftHip
 {
  OFFSET 8.869179 -0.005661 -0.000578
  CHANNELS 3 Yrotation Xrotation Zrotation
  JOINT LeftKnee
  {
   OFFSET 0.000000 -45.835245 0.000547
   CHANNELS 3 Yrotation Xrotation Zrotation
   JOINT LeftAnkle
   {
    OFFSET 0.000000 -44.890236 0.000924
    CHANNELS 3 Yrotation Xrotation Zrotation
    JOINT LeftToe
    {
     OFFSET 0.000000 -8.082775 18.351045
     CHANNELS 3 Yrotation Xrotation Zrotation
     End Site
     {
      OFFSET 0.000000 -1.681997 7.345339
     }
    }
   }
  }
 }
}
MOTION
Frames: 12
Frame Time: 0.008333
290.165574 53.225727 183.933461 -29.938787 -31.556880 -1.948151 0.507722 17.453443 -0.381448 0.249638 7.760772 -0.455832 0.249638 7.760772 -0.455832 0.192761 5.820398 -0.344537 -4.492463 13.121535 -0.354842 -8.375699 -11.707857 1.161272 -4.770454 0.273991 4.972366 22.190430 -1.179279 -34.649746 28.512804 -63.452971 10.034886 44.750879 -23.582878 -60.572609 1.704760 -1.126364 -4.535425 -27.690115 -2.896481 47.666136 -7.263925 -56.586642 -27.008802 -46.036878 -51.348378 56.107501 -26.208090 -55.211888 15.383969 -157.499197 74.294172 -164.459156 2.593156 -15.745578 -5.370106 -0.092349 0.864820 -0.035539 20.183359 -58.165169 -5.793610 174.387010 67.791575 178.377909 5.302000 -22.737302 6.673063 -0.027654 -0.254099 -0.013536
290.164431 53.226786 183.931476 -29.943885 -31.562052 -1.940800 0.504231 17.450011 -0.382846 0.248473 7.759313 -0.455553 0.248473 7.759313 -0.455553 0.191884 5.819305 -0.344312 -4.489783 13.123826 -0.353976 -8.370848 -11.703693 1.161665 -4.767693 0.283954 4.969728 22.185660 -1.193533 -34.652004 28.517091 -63.450898 10.028853 44.743587 -23.581403 -60.560350 1.707071 -1.126611 -4.540688 -27.694134 -2.893997 47.660023 -7.248617 -56.544853 -27.051176 -46.111594 -51.343313 56.180865 -26.205476 -55.206518 15.382778 -157.463314 74.294992 -164.427811 2.578195 -15.746755 -5.361599 -0.097027 0.866635 -0.041357 20.193409 -58.157577 -5.799552 174.390969 67.794816 178.384464 5.304143 -22.732924 6.671328 -0.028492 -0.254890 -0.013479
290.161776 53.228277 183.928612 -29.947516 -31.566837 -1.939613 0.504077 17.448400 -0.377888 0.247386 7.758773 -0.455437 0.247386 7.758773 -0.455437 0.191068 5.818900 -0.344212 -4.485802 13.125946 -0.352126 -8.363941 -11.699849 1.163409 -4.760929 0.290894 4.969117 22.173247 -1.199117 -34.655098 28.525105 -63.450750 10.015965 44.745553 -23.580163 -60.544977 1.705696 -1.126940 -4.537705 -27.688059 -2.891305 47.649567 -7.249077 -56.546955 -27.057838 -46.108794 -51.335532 56.185814 -26.198346 -55.200863 15.377723 -157.472840 74.298760 -164.434428 2.609947 -15.741639 -5.373006 -0.092760 0.867273 -0.041135 20.199967 -58.154770 -5.796719 174.380948 67.796366 178.383345 5.270422 -22.724313 6.681452 -0.028817 -0.255889 -0.014874
290.158319 53.229215 183.925518 -29.950070 -31.571267 -1.935292 0.497544 17.446893 -0.379974 0.244824 7.758334 -0.454966 0.244824 7.758334 -0.454966 0.189144 5.818573 -0.343826 -4.481906 13.126280 -0.352653 -8.356324 -11.699478 1.160807 -4.755029 0.291198 4.970070 22.166650 -1.199989 -34.664703 28.523163 -63.449950 10.019166 44.749505 -23.582531 -60.539186 1.709780 -1.128864 -4.541499 -27.684368 -2.887331 47.643537 -7.231819 -56.513625 -27.109493 -46.201145 -51.317511 56.275301 -26.196280 -55.196292 15.377358 -157.453894 74.299076 -164.411234 2.571328 -15.742234 -5.363485 -0.098208 0.865648 -0.046730 20.207188 -58.147618 -5.806719 174.366683 67.797674 178.368022 5.355524 -22.729370 6.648952 -0.026122 -0.257960 -0.014096
290.153322 53.229732 183.921641 -29.957565 -31.575473 -1.928831 0.493904 17.443494 -0.382651 0.243713 7.757109 -0.455480 0.243713 7.757109 -0.455480 0.188317 5.817655 -0.344197 -4.478246 13.128185 -0.351763 -8.349646 -11.696081 1.160877 -4.756472 0.298512 4.973772 22.170870 -1.199414 -34.669903 28.521220 -63.447092 10.011745 44.743499 -23.589792 -60.527867 1.705095 -1.121292 -4.542024 -27.679632 -2.884105 47.641988 -7.233759 -56.515689 -27.113678 -46.219279 -51.306343 56.306566 -26.180920 -55.192557 15.364638 -157.458807 74.301781 -164.408397 2.579751 -15.744793 -5.365878 -0.108989 0.869704 -0.051897 20.210259 -58.142216 -5.807781 174.382572 67.798183 178.381039 5.434536 -22.733348 6.618933 -0.023976 -0.259592 -0.013460
290.149024 53.231294 183.917654 -29.960053 -31.584728 -1.925174 0.488428 17.441897 -0.385295 0.242247 7.756006 -0.455648 0.242247 7.756006 -0.455648 0.187221 5.816829 -0.344303 -4.477198 13.130918 -0.352472 -8.347222 -11.691118 1.158918 -4.751988 0.307215 4.976735 22.166431 -1.205927 -34.673961 28.522859 -63.443302 10.010028 44.742338 -23.590474 -60.523434 1.707693 -1.112022 -4.545579 -27.680119 -2.887000 47.642858 -7.217882 -56.476936 -27.164278 -46.313702 -51.293463 56.396429 -26.175129 -55.185959 15.356001 -157.463269 74.301928 -164.414270 2.645111 -15.733718 -5.388278 -0.104051 0.866235 -0.048512 20.215974 -58.132524 -5.809800 174.386298 67.801027 178.391784 5.445340 -22.729290 6.613273 -0.025177 -0.259491 -0.014514
290.147769 53.231976 183.915139 -29.964744 -31.590542 -1.921675 0.490662 17.438256 -0.383530 0.242230 7.755027 -0.454867 0.242230 7.755027 -0.454867 0.187198 5.816095 -0.343718 -4.478898 13.135167 -0.353185 -8.349924 -11.683197 1.157961 -4.757769 0.311525 4.983339 22.157015 -1.200725 -34.677565 28.531633 -63.444297 9.999685 44.745934 -23.595517 -60.516046 1.706100 -1.102669 -4.552227 -27.683003 -2.880924 47.650153 -7.205392 -56.480462 -27.182685 -46.326671 -51.285596 56.412516 -26.176660 -55.180107 15.356627 -157.466876 74.305344 -164.420226 2.651330 -15.728990 -5.390010 -0.106498 0.865585 -0.051460 20.209745 -58.125741 -5.804961 174.420403 67.805942 178.435112 5.386052 -22.721488 6.629196 -0.026370 -0.253790 -0.015488
290.148061 53.233450 183.914401 -29.969582 -31.602751 -1.914623 0.483800 17.435534 -0.388025 0.240159 7.753295 -0.455127 0.240159 7.753295 -0.455127 0.185649 5.814797 -0.343885 -4.477216 13.141266 -0.354886 -8.345713 -11.672095 1.153636 -4.754712 0.321459 4.977361 22.154648 -1.201459 -34.672714 28.539602 -63.449731 9.991121 44.745481 -23.589979 -60.511371 1.718856 -1.086856 -4.552519 -27.683239 -2.879854 47.645517 -7.182079 -56.450547 -27.235987 -46.416172 -51.271841 56.489404 -26.162191 -55.171261 15.342378 -157.454897 74.305779 -164.409635 2.642477 -15.727579 -5.382484 -0.111370 0.865349 -0.055131 20.210537 -58.111481 -5.804196 174.406198 67.807970 178.427731 5.332940 -22.717140 6.643263 -0.026510 -0.251540 -0.016366
290.145944 53.232173 183.908363 -30.000210 -31.592160 -1.921579 0.509166 17.410757 -0.363221 0.238952 7.751960 -0.455390 0.238952 7.751960 -0.455390 0.184748 5.813797 -0.344067 -4.475235 13.147725 -0.357192 -8.340670 -11.660382 1.148017 -4.758362 0.334928 4.977162 22.157751 -1.201826 -34.671253 28.551000 -63.448128 9.980050 44.746324 -23.596179 -60.506636 1.722192 -1.071974 -4.554753 -27.676318 -2.879352 47.639767 -7.187297 -56.454014 -27.236794 -46.426820 -51.263107 56.503216 -26.181242 -55.170585 15.392621 -157.371485 74.303404 -164.323585 2.629776 -15.740668 -5.370978 -0.129553 0.879453 -0.064806 20.205601 -58.133733 -5.770116 174.410726 67.803159 178.436903 5.336479 -22.719880 6.636192 -0.027208 -0.249451 -0.015381
290.144195 53.231798 183.905474 -30.009444 -31.594674 -1.918686 0.512456 17.404833 -0.361377 0.238274 7.750985 -0.455256 0.238274 7.750985 -0.455256 0.184237 5.813067 -0.343958 -4.473770 13.151757 -0.359509 -8.336732 -11.653142 1.142756 -4.762487 0.338191 4.978663 22.157907 -1.202331 -34.674762 28.539939 -63.450108 9.992384 44.752948 -23.596256 -60.506126 1.719610 -1.065828 -4.554019 -27.663732 -2.877661 47.628563 -7.169588 -56.426445 -27.281660 -46.510916 -51.252106 56.567044 -26.182020 -55.167118 15.395467 -157.356016 74.306068 -164.309270 2.645755 -15.738173 -5.370754 -0.134960 0.881153 -0.069514 20.206272 -58.130378 -5.766205 174.421284 67.803784 178.444607 5.402720 -22.727799 6.609187 -0.026056 -0.248603 -0.012502
290.144605 53.232373 183.904024 -30.015051 -31.602664 -1.914144 0.510490 17.400695 -0.364667 0.237710 7.749497 -0.455974 0.237710 7.749497 -0.455974 0.183823 5.811951 -0.344488 -4.472372 13.161140 -0.361326 -8.332839 -11.635943 1.138100 -4.769348 0.346796 4.982946 22.168548 -1.193281 -34.674923 28.546866 -63.452561 9.981307 44.750628 -23.598084 -60.504574 1.724189 -1.052163 -4.553231 -27.652112 -2.873688 47.619904 -7.164474 -56.430552 -27.284159 -46.529853 -51.235345 56.583818 -26.179323 -55.161058 15.396838 -157.324898 74.304379 -164.279026 2.620540 -15.736841 -5.364271 -0.131950 0.878879 -0.069287 20.204545 -58.121521 -5.761855 174.416063 67.806177 178.440473 5.387972 -22.724560 6.610276 -0.026766 -0.248484 -0.011461
290.144681 53.233205 183.902542 -30.016435 -31.615322 -1.918853 0.505842 17.397505 -0.363533 0.235885 7.747144 -0.456027 0.235885 7.747144 -0.456027 0.182456 5.810187 -0.344504 -4.470178 13.171357 -0.361898 -8.327898 -11.617153 1.135420 -4.769667 0.358754 4.983451 22.180644 -1.184107 -34.666914 28.568818 -63.451437 9.952183 44.738721 -23.599181 -60.497809 1.722953 -1.036530 -4.553676 -27.624169 -2.869105 47.608178 -7.149000 -56.406566 -27.329519 -46.624540 -51.215685 56.657549 -26.180916 -55.145676 15.398163 -157.317556 74.307300 -164.271483 2.623979 -15.736294 -5.367084 -0.127203 0.880567 -0.067277 20.197021 -58.113267 -5.751041 174.410498 67.806144 178.444359 5.351659 -22.715822 6.618866 -0.028175 -0.249685 -0.011598
